<svg width="152" height="176" viewBox="0 0 152 176" fill="none" xmlns="http://www.w3.org/2000/svg">
<path d="M151.42 102.364L126.384 116.734L126.171 116.869V146.033V146.053L151.42 131.548V102.364Z" fill="#BE3F9E"/>
<path d="M126.266 116.87L101.135 131.277L100.922 131.393H100.903V160.577H100.922L126.266 146.011V116.87Z" fill="#3DA1BD"/>
<path d="M25.6719 145.933L25.4844 116.808L0.0232544 101.843V131.007V131.026L25.6719 145.933Z" fill="#81D2E0"/>
<path d="M50.5016 160.383V131.2L25.2334 116.657L25.2527 145.705H25.2721L50.5016 160.383Z" fill="#81D2E0"/>
<path d="M75.7506 175.081L75.7773 145.905L50.5018 131.2V160.403H50.5211L75.7506 175.081Z" fill="#49B7CF"/>
<path d="M100.999 131.393L75.9631 145.763L75.7504 145.898V175.081L100.903 160.577L100.999 131.393Z" fill="#3DA1BD"/>
<path d="M151.42 73.1792L126.285 87.6045L126.152 87.7217V116.888V116.908L151.42 102.383V73.1792Z" fill="#994FA0"/>
<path d="M126.19 87.7628L101.154 102.132L100.942 102.248L100.922 131.432L126.171 116.946V116.927L126.19 87.7628Z" fill="#994FA0"/>
<path d="M25.2334 116.657L25.2528 87.4732L0.00387573 72.7366L0.0232087 101.939L25.2334 116.657Z" fill="#FFC41A"/>
<path d="M50.5016 131.2V102.152L37.8985 94.7803L25.2539 87.4405L25.2334 116.657H25.2527L50.5016 131.2Z" fill="#F39B35"/>
<path d="M75.7506 145.898V116.715L50.5018 102.017V131.2L75.7506 145.898Z" fill="#22758E"/>
<path d="M100.999 102.21L75.9631 116.579L75.7504 116.695L75.7151 116.769L75.7504 145.898L100.999 131.393V102.21Z" fill="#026D8E"/>
<path d="M75.6732 29.1834L75.8859 29.0676L100.922 14.6786L75.6732 0L50.4243 14.5048L75.6732 29.1834Z" fill="#C4CD46"/>
<path d="M100.941 43.8622L101.135 43.727L126.171 29.3573L100.922 14.6787L75.6732 29.1835L100.941 43.8622Z" fill="#F064A4"/>
<path d="M126.171 58.5409H126.19L126.384 58.4057L151.42 44.0361L126.171 29.3574L100.941 43.8622L126.171 58.5409Z" fill="#AA6AAB"/>
<path d="M151.42 44.0359L126.384 58.4055L126.171 58.5407V87.7048L126.19 87.7241L151.42 73.2193V44.0359Z" fill="#994FA0"/>
<path d="M50.463 43.6883L50.6756 43.5531L75.6925 29.1835L50.463 14.5048L25.2334 29.0676L50.463 43.6883Z" fill="#CDDD40"/>
<path d="M75.7506 58.4827L100.942 43.862L75.6641 29.1631L50.4297 43.6787L75.7506 58.4827Z" fill="#CDDD40"/>
<path d="M100.999 73.1614L126.171 58.5407L100.941 43.8621L75.7504 58.4827L100.999 73.1614Z" fill="#8F499E"/>
<path d="M126.171 58.5408L101.212 73.0263L100.999 73.1615V102.345L126.326 87.7242V87.7049L126.19 58.5408H126.171Z" fill="#5F356B"/>
<path d="M25.2527 58.2896L50.463 43.6883L25.2334 29.0676L0 43.6201L25.2527 58.2896Z" fill="#FFD75A"/>
<path d="M25.2528 87.473V58.2896L0.00387573 43.611V72.7944H0.0232087L25.2528 87.473Z" fill="#FFC41A"/>
<path d="M50.521 72.9875L50.7337 72.8523L75.7699 58.4827L50.463 43.6882L25.2528 58.2896L50.5017 72.9875H50.521Z" fill="#F8B730"/>
<path d="M50.5017 102.194V72.9682L25.2528 58.2896V87.473L50.5017 102.194Z" fill="#F39B35"/>
<path d="M75.7507 87.6663L75.9633 87.5311L101 73.1615L75.7507 58.4828L50.4609 72.9639L75.7507 87.6663Z" fill="#F8B730"/>
<path d="M75.77 116.85H75.7893V87.6664L50.5018 72.9878L50.4766 102.124L75.77 116.85Z" fill="#F39B35"/>
<path d="M75.9631 87.5311L75.7504 87.6662V116.83L75.7697 116.85L100.999 102.345V73.1614L75.9631 87.5311Z" fill="#FAAA36"/>
</svg>
